<?xml version="1.0" encoding="utf-8"?>
<svg xmlns="http://www.w3.org/2000/svg" viewBox="1137.9104 1250.9608 451.3097 365.9952" width="451.31px" height="365.995px" preserveAspectRatio="none"><g id="object-0"><path style="stroke-width: 1.597; fill: rgb(185, 99, 34); transform-origin: 1138.09px 1435.07px;" d="M 1311.05 1488.67 C 1255.89 1485.07 1214.44 1472.67 1205.24 1456.99 C 1201.57 1450.75 1201.33 1445.8 1204.42 1440.27 C 1205.95 1437.59 1208.76 1434.13 1210.68 1432.59 C 1232.23 1415.39 1289.78 1404.69 1351.37 1406.41 C 1398.99 1407.75 1434.5 1414.41 1457.58 1426.32 C 1467.15 1431.27 1468.89 1432.66 1473.23 1438.85 C 1480.07 1448.65 1475.49 1459.39 1460.79 1468.01 C 1447 1476.1 1416.72 1483.93 1387.31 1487.02 C 1367.45 1489.1 1330.1 1489.9 1311.05 1488.67 Z M 1365 1479.75 C 1388.14 1478.19 1404.31 1475.94 1422.37 1471.77 C 1449.69 1465.46 1467.73 1456.14 1467.73 1448.34 C 1467.73 1445.5 1461.77 1438.69 1457.15 1436.24 C 1431.63 1422.71 1390.64 1415.68 1338.04 1415.8 C 1297.18 1415.9 1263.01 1420.45 1238.31 1429.09 C 1225.02 1433.74 1220.37 1436.1 1215.3 1440.76 C 1192.04 1462.13 1281.25 1485.37 1365 1479.75 Z M 1308.15 1475.21 C 1270.93 1472.54 1238.01 1464.76 1222.18 1454.88 C 1211.23 1448.06 1214.26 1443.37 1235.01 1434.95 C 1275.66 1418.46 1359.56 1414.98 1418.09 1427.35 C 1439.24 1431.82 1459.2 1440.34 1462.81 1446.44 C 1466.63 1452.96 1440.31 1464.94 1410.6 1470.21 C 1382.64 1475.18 1337.95 1477.36 1308.15 1475.21 Z M 1326.74 1384.97 L 1324.23 1382.84 L 1327.65 1375.73 C 1334.01 1362.56 1333.43 1355.31 1324.72 1339.43 C 1316.31 1324.11 1315.58 1311.8 1322.12 1296.53 C 1325.36 1289.03 1327.77 1286.93 1331.1 1288.78 C 1333.95 1290.38 1333.79 1292.39 1330.28 1299.83 C 1327.99 1304.73 1327.28 1308.02 1327.01 1315.03 C 1326.7 1323.18 1326.95 1324.48 1329.88 1330.09 C 1340 1349.52 1340.15 1350.04 1340.15 1360.8 C 1340.12 1369.71 1339.75 1371.6 1336.94 1377.43 C 1335.2 1381.04 1332.76 1384.7 1331.5 1385.56 C 1329.55 1386.91 1328.97 1386.84 1326.74 1384.97 Z M 1346.75 1348.34 C 1345.26 1346.79 1346.14 1342.47 1348.96 1337.21 C 1351.46 1332.61 1351.92 1330.47 1351.92 1323.36 C 1351.92 1316.17 1351.46 1314.05 1348.77 1308.84 C 1338.9 1289.62 1339.08 1290.29 1339.08 1278.18 C 1339.08 1267.57 1339.3 1266.51 1342.84 1259.16 C 1345.9 1252.75 1347.09 1251.32 1349.44 1251.03 C 1354.4 1250.43 1354.88 1253.7 1351 1262 C 1348.07 1268.29 1347.64 1270.42 1347.64 1278.18 C 1347.64 1285.67 1348.1 1288.01 1350.45 1292.69 C 1361.09 1313.81 1360.45 1311.83 1360.42 1323.36 C 1360.35 1334.7 1358.28 1341.86 1353.57 1346.78 C 1351.4 1349.05 1348.13 1349.79 1346.75 1348.34 Z" id="path3-6"><title>logo</title></path><path style="stroke-width: 1.598; paint-order: fill; fill: rgb(0, 161, 9); transform-origin: 1137.9px 1432.84px;" d="M 1255.17 1615.84 C 1244.41 1613.62 1225.37 1605.79 1214.04 1598.9 C 1192.18 1585.62 1171.67 1564.3 1158.04 1540.67 C 1136.28 1502.93 1132.09 1469.97 1145.82 1444.27 C 1155.63 1425.89 1176.62 1409.28 1201.87 1399.92 C 1211.99 1396.16 1215.07 1396.39 1215.07 1400.87 C 1215.07 1403.66 1214.07 1404.72 1207.62 1408.84 C 1198.17 1414.84 1190.22 1422.95 1186.8 1430.07 C 1183.04 1437.96 1182.52 1451.04 1185.67 1459.78 C 1192.03 1477.48 1208.56 1487.4 1251.38 1499.13 C 1287.54 1509.06 1295.34 1512.42 1305.85 1522.62 C 1318.08 1534.52 1323.67 1550.48 1321.44 1567.26 C 1317.1 1600.01 1286.68 1622.3 1255.17 1615.84 Z M 1276.9 1606.44 C 1290.29 1603.48 1302.82 1592.97 1309.21 1579.36 C 1311.96 1573.51 1312.21 1571.88 1312.21 1560.66 C 1312.21 1549.28 1311.99 1547.9 1309.06 1541.88 C 1305.24 1533.94 1295.86 1524.57 1287.72 1520.55 C 1282.16 1517.8 1275.47 1515.67 1236.47 1504.27 C 1207.95 1495.92 1192.18 1486.98 1182.98 1473.9 C 1173.41 1460.32 1171.58 1441.04 1178.46 1426.85 C 1179.62 1424.49 1180.29 1422.3 1179.99 1422 C 1178.95 1420.89 1170.02 1428.3 1162.9 1436.22 C 1149.94 1450.56 1144.56 1467.7 1147.13 1486.27 C 1150.77 1512.78 1166.87 1543.81 1188.88 1566.84 C 1205.26 1583.98 1222.59 1595.32 1243.68 1602.71 C 1259.58 1608.27 1265.6 1608.95 1276.9 1606.44 Z M 1281.8 1580.28 C 1243.87 1571.87 1212.63 1557.2 1190.81 1537.51 C 1173.02 1521.47 1160.64 1496.99 1159.85 1476.34 C 1159.63 1470.78 1159.94 1469.17 1161.46 1468.15 C 1164.49 1466.09 1166.93 1468.62 1167.91 1474.81 C 1170.85 1493.64 1176.29 1506.69 1186.4 1519.29 C 1192.24 1526.51 1203.61 1537.29 1204.47 1536.4 C 1204.68 1536.17 1204.16 1533.55 1203.31 1530.57 C 1202.42 1527.58 1201.75 1521.7 1201.75 1517.5 C 1201.75 1511.32 1202.14 1509.43 1203.89 1507.61 C 1205.6 1505.81 1206.48 1505.58 1208.17 1506.53 C 1209.94 1507.52 1210.28 1508.88 1210.28 1515.28 C 1210.28 1524.08 1212.38 1532.43 1216.85 1541.25 C 1219.87 1547.25 1220.45 1547.72 1230.36 1552.64 C 1240.32 1557.59 1255.11 1563.77 1255.11 1562.98 C 1255.11 1562.76 1253 1558.39 1250.41 1553.26 C 1242.61 1537.86 1240.17 1525.65 1244.35 1523.31 C 1247.23 1521.7 1249.67 1522.97 1250.44 1526.46 C 1253.86 1542.31 1257.65 1550.4 1267.55 1562.96 C 1271.98 1568.58 1272.08 1568.63 1282.93 1571.08 C 1288.95 1572.43 1294.54 1574.1 1295.3 1574.78 C 1298.15 1577.24 1296.19 1582.53 1292.52 1582.36 C 1291.61 1582.32 1286.78 1581.38 1281.8 1580.28 Z M 1398.15 1615.26 C 1387.24 1612.19 1381.19 1608.49 1373.21 1600.03 C 1351.11 1576.64 1350.9 1543.85 1372.66 1522.76 C 1383.57 1512.19 1392.04 1508.58 1430.18 1498.18 C 1460.32 1489.97 1474.84 1483.13 1485.02 1472.36 C 1494.34 1462.48 1497.76 1446.29 1493.18 1433.62 C 1490.09 1425.04 1481.74 1415.74 1471.41 1409.39 C 1462.73 1404.03 1461.6 1402.61 1463.32 1399.24 C 1464.84 1396.24 1468.27 1396.53 1477.68 1400.43 C 1495.68 1407.91 1508.92 1416.49 1519.98 1427.84 C 1532.18 1440.35 1538.41 1453.7 1540.31 1471.31 C 1540.89 1476.86 1541.47 1481.47 1541.56 1481.57 C 1541.65 1481.67 1543.88 1481.32 1546.53 1480.78 C 1561.15 1477.83 1574.06 1480.54 1581.25 1488.06 C 1592.18 1499.49 1591.86 1518.87 1580.34 1543.79 C 1569.79 1566.58 1556.78 1580.03 1538.44 1587.1 C 1533.12 1589.15 1529.85 1589.53 1517.72 1589.55 C 1504.94 1589.56 1502.35 1589.23 1494.77 1586.6 L 1486.27 1583.63 L 1478.75 1589.17 C 1449.78 1610.65 1418.14 1620.87 1398.15 1615.26 Z M 1428.99 1604.73 C 1444.58 1600.21 1461.63 1591.16 1476.31 1579.62 C 1480.58 1576.26 1484.5 1573.51 1484.98 1573.51 C 1485.51 1573.51 1490.3 1575.05 1495.65 1576.94 C 1519.61 1585.35 1540.4 1581.2 1556.46 1564.79 C 1572.11 1548.77 1583.16 1519.79 1579.72 1503.74 C 1578.31 1497.15 1573.67 1491.68 1568.12 1490.06 C 1563.1 1488.59 1549.51 1489.24 1541.96 1491.33 C 1531.96 1494.08 1531.6 1493.65 1531.6 1479.14 C 1531.6 1457.02 1523.53 1440.65 1505.71 1426.65 C 1499.14 1421.49 1496.97 1421.37 1499.87 1426.33 C 1502.8 1431.26 1504.09 1439.28 1503.63 1449.41 C 1503.26 1457.75 1502.65 1460.5 1499.78 1466.58 C 1495.5 1475.68 1487.8 1483.9 1477.95 1489.92 C 1469.12 1495.31 1449.59 1502.82 1433.36 1507.07 C 1410.04 1513.18 1395.28 1517.95 1389.17 1521.36 C 1362.42 1536.28 1357.47 1569.44 1378.53 1592.55 C 1391.64 1606.92 1407.9 1610.85 1428.99 1604.73 Z M 1383.39 1581.48 C 1382.6 1580.94 1382.14 1579.13 1382.32 1577.36 C 1382.72 1573.91 1382.11 1574.17 1397.36 1570.74 C 1406.62 1568.66 1408.79 1566.9 1416.46 1555.28 C 1421.75 1547.26 1425.2 1539.24 1427.04 1530.74 C 1428.44 1524.1 1430.64 1521.55 1433.85 1522.83 C 1438.38 1524.65 1435.96 1537.32 1428.08 1553.08 L 1422.91 1563.35 L 1431.07 1560.22 C 1435.56 1558.51 1443.57 1554.89 1448.86 1552.18 C 1458.03 1547.49 1458.61 1546.96 1461.91 1540.57 C 1466.04 1532.47 1469.12 1519.19 1468.11 1513.65 C 1467.29 1508.97 1468.79 1506.51 1472.48 1506.51 C 1477.25 1506.51 1478.47 1515.56 1475.51 1528.72 C 1474.62 1532.65 1474.13 1536.13 1474.44 1536.44 C 1475.51 1537.57 1496.97 1513.65 1500.45 1507.44 C 1505.04 1499.26 1508.92 1487.45 1509.8 1479.08 C 1510.87 1468.83 1514.14 1464.98 1518.18 1469.21 C 1519.52 1470.6 1519.74 1472.26 1519.19 1476.74 C 1517.93 1486.99 1514.75 1498.25 1510.69 1506.66 C 1495.19 1538.89 1458.82 1564.03 1408.45 1577.32 C 1391.89 1581.7 1385.32 1582.79 1383.39 1581.48 Z M 1512.07 1562.87 C 1506.78 1560.84 1501.7 1557.01 1501.7 1555.07 C 1501.7 1554.24 1504.82 1548.72 1508.64 1542.83 C 1512.46 1536.93 1517.75 1527.62 1520.38 1522.15 C 1525.12 1512.25 1525.18 1512.18 1530.77 1510.41 C 1533.86 1509.43 1539.54 1508.34 1543.37 1507.99 C 1549.14 1507.45 1551.1 1507.75 1554.69 1509.66 C 1563 1514.1 1563.38 1521.19 1556.12 1536.23 C 1545.26 1558.74 1528.2 1569.05 1512.07 1562.87 Z M 1531.44 1552.37 C 1538.93 1548.38 1549.46 1533.35 1552.37 1522.54 C 1553.54 1518.16 1550.23 1516.18 1543.01 1516.98 C 1533.52 1518.01 1531.84 1519.33 1526.58 1529.8 C 1524.02 1534.92 1520.01 1542.06 1517.66 1545.64 C 1515.34 1549.23 1513.44 1552.46 1513.44 1552.83 C 1513.44 1553.18 1514.51 1553.97 1515.82 1554.55 C 1519.16 1556.03 1526.52 1555.01 1531.44 1552.37 Z" id="path-1"><title>logo</title></path></g></svg>