<?xml version="1.0" encoding="UTF-8" standalone="no"?>
<svg xmlns="http://www.w3.org/2000/svg" width="128" height="128" viewBox="0 0 128 128">
  <!-- Background Circle -->
  <circle cx="64" cy="64" r="60" fill="#F8F5F2" stroke="#6F4E37" stroke-width="2"/>
  
  <!-- Primary User -->
  <circle cx="64" cy="50" r="20" fill="#6F4E37"/>
  <path d="M38 100 Q38 70, 64 70 Q90 70, 90 100 Z" fill="#6F4E37"/>
  
  <!-- Secondary Users -->
  <circle cx="35" cy="55" r="13" fill="#B1907F"/>
  <path d="M20 95 Q20 75, 35 75 Q50 75, 50 95 Z" fill="#B1907F"/>
  
  <circle cx="93" cy="55" r="13" fill="#B1907F"/>
  <path d="M78 95 Q78 75, 93 75 Q108 75, 108 95 Z" fill="#B1907F"/>
  
  <!-- Coffee Cup Handle -->
  <path d="M40 85 Q30 85, 30 95 Q30 105, 40 105" fill="none" stroke="#6F4E37" stroke-width="3" stroke-linecap="round"/>
  
  <!-- Coffee Accents -->
  <path d="M80 90 Q90 85, 95 90" fill="none" stroke="#D2B48C" stroke-width="2" stroke-linecap="round"/>
  
  <!-- Steam -->
  <path d="M60 40 Q65 35, 68 37 Q71 40, 75 35" fill="none" stroke="#4CAF50" stroke-width="2" stroke-linecap="round"/>
</svg> 