<?xml version="1.0" encoding="utf-8"?>
<svg xmlns="http://www.w3.org/2000/svg" viewBox="0 0 1920 1080" xmlns:bx="https://boxy-svg.com" width="1920px" height="1080px"><defs><bx:export><bx:file format="jpeg" path="bg.jpeg" excluded="true"/><bx:file format="svg"/></bx:export><radialGradient id="radialGradient25" cx="129.68309" cy="154.09184" r="159.86795" gradientTransform="matrix(1.964713, 0, 0, 1.131413, -171.925629, -45.455736)" gradientUnits="userSpaceOnUse" href="#linearGradient23"/><linearGradient id="linearGradient23"><stop style="stop-color:#cd7d4b;stop-opacity:1;" offset="0" id="stop24"/><stop style="stop-color:#c77242;stop-opacity:1;" offset="0.1293" id="stop27"/><stop style="stop-color:#c16d3e;stop-opacity:1;" offset="0.2259" id="stop35"/><stop style="stop-color:#af6137;stop-opacity:1;" offset="0.3514" id="stop31"/><stop style="stop-color:#90532d;stop-opacity:1;" offset="0.4903" id="stop29"/><stop style="stop-color:#834c2a;stop-opacity:1;" offset="0.5676" id="stop34"/><stop style="stop-color:#794427;stop-opacity:1;" offset="0.6564" id="stop33"/><stop style="stop-color:#6f3f25;stop-opacity:1;" offset="0.7799" id="stop30"/><stop style="stop-color:#583320;stop-opacity:1;" offset="0.9093" id="stop32"/><stop style="stop-color:#4b2b1c;stop-opacity:1;" offset="1" id="stop25"/></linearGradient></defs><g id="group-1" transform="matrix(3.056405, 0, 0, 2.985462, 597.488281, 376.327087)" style="transform-origin: -53.1239px 111.366px;"><rect style="fill: url(&quot;#radialGradient25&quot;); stroke-width: 1.695;" id="rect20" width="628.189" height="361.754" x="-231.23" y="-51.99"><title>bg</title></rect><path style="stroke-width: 0.516739; fill: rgb(226, 198, 140); transform-box: fill-box; transform-origin: 50% 50%;" d="M 258.861 309.143 C 260.739 300.691 262.79 295.657 267.731 287.355 C 268.471 286.114 271.911 281.262 272.296 280.917 C 272.363 280.855 272.845 280.271 273.364 279.614 C 275.444 276.996 278.954 273.32 282.015 270.548 C 285.307 267.57 285.504 267.395 286.298 266.778 C 286.717 266.451 287.186 266.056 287.345 265.896 C 287.783 265.444 293.513 261.224 295.986 259.535 C 298.278 257.962 303.998 254.26 304.131 254.26 C 304.17 254.26 304.904 253.837 305.755 253.321 C 307.543 252.241 308.632 251.613 311.436 250.038 C 314.952 248.067 316.432 247.268 325.299 242.557 C 346.439 231.327 355.142 225.98 363.899 218.841 C 374.732 210.007 383.176 199.2 387.783 188.269 C 390.779 181.163 392.234 174.752 392.437 167.789 C 392.662 159.998 391.766 155.581 387.521 143.52 C 384.307 134.392 383.352 131.092 382.37 125.75 C 381.072 118.675 381.027 110.16 382.251 102.561 C 383.976 91.859 388.475 81.463 395.221 72.592 L 396.834 70.471 L 396.897 71.881 L 396.959 73.292 L 395.695 74.987 C 390.887 81.442 387.049 89.853 384.992 98.436 C 383.678 103.919 383.299 107.353 383.297 113.831 C 383.291 123.577 384.334 128.874 388.69 141.135 C 393.493 154.669 394.347 158.869 394.128 167.899 C 393.933 175.898 392.494 182.192 389.109 189.874 C 382.088 205.809 369.494 218.935 349.424 231.233 C 343.073 235.126 339.966 236.83 319.903 247.433 C 308.71 253.348 302.23 257.133 295.708 261.567 C 276.405 274.686 264.768 289.662 260.424 306.974 C 259.782 309.538 259.694 309.739 259.23 309.739 C 258.79 309.739 258.745 309.664 258.861 309.143 Z M 278.126 307.528 C 280.68 300.001 284.447 292.921 289.576 286.007 C 292.128 282.568 292.952 281.592 296.172 278.207 C 299.666 274.534 301.189 273.082 304.434 270.331 C 304.949 269.896 305.773 269.197 306.263 268.781 C 308.959 266.489 314.872 262.27 319.161 259.569 C 325.568 255.537 328.938 253.639 337.158 249.426 C 343.228 246.316 343.385 246.238 351.542 242.413 C 354.453 241.046 357.214 239.75 357.679 239.527 C 358.146 239.308 360.67 238.131 363.289 236.917 C 376.483 230.795 386.285 225.568 393.84 220.635 C 395.453 219.581 396.814 218.718 396.867 218.718 C 396.919 218.718 396.933 219.231 396.899 219.857 L 396.834 220.993 L 394.025 222.793 C 385.269 228.402 377.309 232.514 356.411 242.23 C 336.184 251.634 326.802 256.655 316.724 263.468 C 298.257 275.951 285.863 290.868 279.993 307.68 L 279.312 309.629 L 278.34 309.697 L 277.367 309.763 L 278.126 307.528 Z M 297.891 309.619 C 297.891 309.375 303.865 300.774 305.524 298.627 C 308.157 295.223 313.458 288.563 313.76 288.285 C 313.826 288.223 314.148 287.833 314.48 287.417 C 314.812 286.999 315.621 286.068 316.275 285.346 C 316.931 284.624 318.419 282.981 319.583 281.691 C 322.319 278.665 327.363 273.5 330.572 270.435 C 331.962 269.109 333.303 267.826 333.552 267.588 C 334.069 267.094 338.15 263.452 338.95 262.773 C 339.24 262.524 340.144 261.751 340.961 261.054 C 342.718 259.55 342.623 259.628 344.771 257.904 C 345.702 257.155 346.511 256.492 346.568 256.43 C 346.718 256.267 349.388 254.24 352.711 251.765 C 355.14 249.952 363.791 243.966 364.445 243.642 C 364.565 243.58 366.665 242.306 369.11 240.805 C 375.147 237.102 386.582 230.752 394.981 226.44 L 396.939 225.431 L 396.939 226.503 L 396.939 227.573 L 394.135 229.028 C 370.501 241.297 356.077 250.645 341.278 263.27 C 330.015 272.879 319.221 284.14 309.825 296.084 C 307.63 298.878 301.953 306.621 300.642 308.614 C 299.923 309.705 299.87 309.736 298.897 309.739 C 298.342 309.739 297.891 309.682 297.891 309.619 Z M -231.23 216.74 C -231.23 215.582 -231.23 215.574 -230.13 214.817 C -226.74 212.488 -221.81 207.932 -218.67 204.218 C -210.13 194.149 -205.06 182.524 -203.39 169.201 C -202.89 165.298 -202.89 157.409 -203.39 153.597 C -204.69 143.563 -207.14 136.544 -213.45 124.775 C -217.42 117.366 -219.52 112.708 -220.71 108.628 C -223.36 99.647 -223.54 89.717 -221.26 79.915 C -217.34 63.228 -207.29 48.021 -189.95 32.655 C -184.53 27.845 -177.29 22.15 -166.79 14.465 C -149.01 1.447 -141.54 -4.673 -133.98 -12.403 C -122.5 -24.133 -115.22 -36.078 -112 -48.621 C -111.29 -51.442 -111.11 -51.857 -110.71 -51.915 C -110.11 -52.006 -110.13 -51.816 -110.89 -48.747 C -114.34 -34.916 -122.41 -21.809 -135.28 -9.042 C -142.22 -2.147 -149.73 4.022 -165.84 15.981 C -182.22 28.154 -187.88 32.836 -195.43 40.459 C -202.69 47.785 -207.31 53.614 -211.65 60.953 C -219.61 74.394 -222.76 89.866 -220.22 103.102 C -219.14 108.641 -216.09 116.304 -212.37 122.742 C -211.16 124.887 -207.75 131.747 -206.59 134.469 C -204.28 139.833 -202.74 145.33 -201.76 151.752 C -201.15 155.784 -201.09 166.295 -201.66 170.284 C -203.59 183.447 -208.58 194.863 -216.77 204.857 C -220.37 209.251 -226.29 214.643 -230.66 217.52 L -231.23 217.902 L -231.23 216.74 Z M -231.23 47.571 L -231.23 46.326 L -228.54 44.034 C -220.96 37.604 -213.93 32.507 -198.65 22.372 C -176.19 7.498 -166.96 0.543 -157.37 -8.702 C -143.99 -21.611 -135.32 -35.343 -131.13 -50.383 L -130.68 -51.955 L -129.75 -51.955 L -128.86 -51.955 L -129.24 -50.492 C -130.18 -46.942 -130.64 -45.554 -132.03 -41.987 C -138.77 -24.806 -150.88 -10.06 -170.81 5.251 C -177.95 10.724 -183.96 14.946 -197.8 24.12 C -213.77 34.727 -222.17 40.882 -229.18 47.148 C -230.21 48.066 -231.1 48.817 -231.16 48.817 C -231.21 48.817 -231.23 48.256 -231.23 47.571 Z M -231.23 40.526 L -231.23 39.355 L -229.05 37.759 C -219.29 30.553 -209.66 22.872 -203.41 17.276 C -199.24 13.556 -187.98 2.12 -184.44 -2.003 C -171.77 -16.657 -161.39 -32.012 -152.91 -48.632 L -151.21 -51.955 L -150.26 -51.955 C -149.75 -51.955 -149.33 -51.894 -149.33 -51.818 C -149.33 -51.613 -152.46 -45.493 -154.03 -42.637 C -156.32 -38.472 -156.42 -38.265 -157.75 -36.028 C -160.27 -31.699 -165.36 -23.699 -167.53 -20.641 C -176.07 -8.622 -182.67 -0.671 -191.85 8.733 C -199.71 16.77 -206.8 23.008 -217.89 31.625 C -221.32 34.272 -228.5 39.713 -230.55 41.197 L -231.23 41.694 L -231.23 40.526 Z M 329.425 31.013 C 328.087 29.694 325.009 26.908 322.587 24.818 C 316.345 19.435 315.758 18.605 314.836 13.839 C 314.319 11.176 314.27 11.056 312.24 7.692 C 310.636 5.032 309.935 3.441 309.521 1.519 C 309.374 0.832 309.214 0.273 309.167 0.273 C 309.116 0.273 308.68 0.551 308.193 0.893 C 307.708 1.236 306.165 2.174 304.769 2.982 C 299.396 6.088 297.446 7.877 295.691 11.313 C 294.14 14.344 294.011 14.454 287.414 18.236 C 283.097 20.711 281.279 22.43 279.244 25.964 C 278.732 26.853 278.258 27.577 278.186 27.577 C 277.754 27.577 275.277 20.86 274.229 16.85 C 273.711 14.869 273.664 14.35 273.677 10.784 C 273.687 7.297 273.747 6.661 274.233 4.808 C 275.027 1.779 275.963 -0.355 277.629 -2.943 C 279.834 -6.366 280.298 -7.403 281.579 -11.756 C 282.53 -14.978 284.091 -18.08 285.954 -20.451 C 286.34 -20.94 286.605 -21.397 286.543 -21.461 C 286.477 -21.528 285.933 -21.528 285.332 -21.464 C 284.73 -21.4 283.524 -21.458 282.65 -21.593 C 279.529 -22.073 277.089 -23.066 270.199 -26.648 C 262.92 -30.435 260.86 -31.333 257.617 -32.127 C 253.4 -33.159 249.317 -33.234 244.874 -32.354 C 242.823 -31.948 242.374 -31.934 242.998 -32.295 C 244.302 -33.054 246.569 -35.635 249.518 -39.712 C 253.051 -44.603 256.865 -48.6 260.354 -51.065 C 261.427 -51.824 261.794 -51.974 262.468 -51.915 L 263.288 -51.849 L 261.859 -50.989 C 261.073 -50.516 260.428 -50.044 260.428 -49.937 C 260.428 -49.83 260.595 -49.811 260.801 -49.893 C 261.003 -49.977 262.064 -50.282 263.155 -50.568 C 265.72 -51.241 269.537 -51.287 272.388 -50.675 C 276.109 -49.877 280.15 -47.912 282.83 -45.597 C 283.336 -45.161 283.696 -44.803 283.632 -44.803 C 283.566 -44.803 282.868 -45.231 282.076 -45.752 C 279.07 -47.736 275.741 -49.132 272.388 -49.814 C 271.482 -49.998 269.589 -50.11 267.519 -50.105 C 263.535 -50.094 261.626 -49.688 258.76 -48.247 C 257.333 -47.53 256.609 -46.968 255.045 -45.375 C 253.103 -43.394 250.559 -40.319 250.723 -40.151 C 250.771 -40.102 251.38 -40.348 252.075 -40.701 C 253.885 -41.619 256.463 -42.071 258.948 -41.91 C 261.467 -41.747 263.417 -41.26 267.837 -39.693 C 269.939 -38.948 271.791 -38.424 272.493 -38.378 C 273.834 -38.289 273.863 -38.257 271.118 -39.861 C 266.721 -42.426 263.815 -43.431 260.007 -43.701 L 257.572 -43.876 L 259.795 -43.905 C 263.894 -43.963 266.448 -43.223 272.001 -40.36 L 275.986 -38.306 L 279.055 -38.317 C 281.514 -38.325 282.043 -38.378 281.723 -38.587 C 281.501 -38.728 280.266 -39.651 278.973 -40.635 C 277.679 -41.619 275.811 -42.851 274.82 -43.372 C 273.075 -44.292 270.032 -45.453 269.365 -45.453 C 269.185 -45.453 269.092 -45.511 269.162 -45.584 C 269.372 -45.798 272.231 -45.046 274.276 -44.239 C 276.64 -43.306 277.978 -42.544 280.313 -40.797 C 281.31 -40.057 282.53 -39.175 283.029 -38.841 L 283.936 -38.236 L 286.83 -38.378 C 288.42 -38.456 289.803 -38.603 289.9 -38.704 C 290.001 -38.806 289.836 -39.052 289.536 -39.255 C 288.704 -39.811 284.955 -43.332 285.067 -43.447 C 285.159 -43.541 286.225 -42.854 286.814 -42.319 C 287.134 -42.027 289.428 -40.421 290.872 -39.477 C 291.836 -38.843 292.12 -38.755 292.834 -38.872 C 293.913 -39.049 294.023 -39.269 293.206 -39.613 C 292.847 -39.769 291.244 -41.169 289.646 -42.728 C 284.852 -47.407 280.698 -50.078 276.475 -51.196 C 275.392 -51.481 274.708 -51.722 274.957 -51.728 C 275.673 -51.744 279.022 -50.696 280.643 -49.947 C 284.161 -48.318 289.064 -44.881 291.252 -42.506 C 291.501 -42.239 292.465 -41.389 293.394 -40.621 L 295.082 -39.225 L 296.115 -39.394 C 299.269 -39.908 305.291 -41.559 307.548 -42.527 L 308.367 -42.877 L 306.885 -43.677 C 306.07 -44.119 304.497 -45.124 303.394 -45.909 C 299.356 -48.787 298.107 -49.581 295.768 -50.757 C 293.898 -51.695 293.521 -51.955 294.023 -51.955 C 295.129 -51.955 299.629 -49.795 301.913 -48.166 C 305.308 -45.747 308.018 -43.955 308.774 -43.632 C 309.531 -43.308 309.639 -43.308 310.12 -43.632 L 310.642 -43.983 L 309.398 -44.498 C 308.217 -44.99 307.094 -45.731 302.969 -48.736 C 301.98 -49.455 300.46 -50.474 299.588 -51 C 298.507 -51.653 298.155 -51.955 298.48 -51.955 C 299.212 -51.955 302.44 -50.057 307.097 -46.889 C 308.606 -45.859 310.242 -44.862 310.729 -44.669 L 311.616 -44.324 L 313.378 -45.239 C 315.74 -46.469 319.82 -49.228 320.119 -49.8 C 320.252 -50.052 320.697 -50.643 321.108 -51.107 C 321.658 -51.731 322.022 -51.955 322.484 -51.955 L 323.113 -51.955 L 322.227 -50.926 C 320.987 -49.485 320.382 -48.357 319.463 -45.76 C 318.898 -44.172 318.197 -42.787 317.088 -41.067 C 314.799 -37.52 314.476 -36.876 313.975 -34.835 C 313.251 -31.908 311.955 -28.774 310.602 -26.686 C 308.999 -24.213 304.407 -18.798 299.161 -13.194 C 292.135 -5.689 289.404 -2.464 287.062 1.081 C 285.933 2.789 283.706 7.069 283.717 7.508 C 283.719 7.642 284.079 7.061 284.515 6.219 C 285.596 4.134 286.323 3.15 291.314 -2.978 C 296.652 -9.534 297.935 -11.012 302.334 -15.66 C 307.014 -20.6 307.541 -21.199 309.319 -23.579 C 311.963 -27.116 313.735 -30.517 314.724 -33.953 C 315.138 -35.389 315.216 -35.515 315.428 -35.105 C 315.623 -34.734 315.553 -34.314 315.058 -32.886 L 314.452 -31.127 L 315.051 -28.699 C 315.38 -27.365 315.858 -25.298 316.11 -24.108 C 316.362 -22.915 316.594 -21.908 316.629 -21.868 C 316.711 -21.772 322.786 -28.151 324.022 -29.635 C 325.551 -31.464 327.909 -35.178 328.049 -35.969 C 328.119 -36.357 328.146 -38.175 328.112 -40.007 L 328.049 -43.335 L 327.054 -41.849 C 326.017 -40.298 318.217 -32.233 318.981 -33.496 C 319.468 -34.306 321.318 -36.466 323.743 -39.06 C 327.005 -42.552 328.01 -44.078 327.905 -45.388 L 327.837 -46.212 L 327.123 -44.696 C 326.501 -43.375 325.892 -42.656 322.452 -39.17 C 320.274 -36.964 318.232 -34.819 317.913 -34.402 L 317.331 -33.643 L 317.655 -34.32 C 318.22 -35.498 319.503 -37.116 322.352 -40.247 C 324.632 -42.757 324.778 -42.939 325.718 -44.48 C 327.031 -46.634 327.595 -48.444 327.553 -50.383 C 327.526 -51.635 327.583 -51.955 327.827 -51.955 C 328.012 -51.955 328.182 -51.672 328.25 -51.252 C 328.582 -49.188 328.849 -42.854 328.843 -37.111 C 328.841 -29.656 328.644 -27.72 326.893 -17.715 C 325.688 -10.823 325.265 -7.935 325.091 -5.363 C 325.024 -4.35 324.914 -2.984 324.848 -2.328 C 324.626 -0.12 324.943 -1.331 325.28 -3.989 C 325.466 -5.438 326.23 -9.777 326.981 -13.63 C 328.439 -21.112 329.073 -25.694 329.42 -31.255 C 329.795 -37.226 329.662 -44.779 329.088 -50.599 L 328.953 -51.955 L 329.592 -51.955 C 330.172 -51.955 330.301 -51.811 330.986 -50.437 C 331.4 -49.602 332.252 -48.26 332.879 -47.458 C 334.207 -45.757 334.835 -45.15 339.016 -41.559 C 340.843 -39.991 339.687 -40.643 337.227 -42.571 C 334.177 -44.961 331.795 -47.378 330.911 -48.985 C 330.125 -50.418 329.833 -50.474 330.371 -49.092 C 331.211 -46.942 333.787 -43.714 336.393 -41.551 C 336.899 -41.135 337.702 -40.468 338.182 -40.073 C 338.664 -39.675 339.248 -39.188 339.482 -38.987 C 339.717 -38.79 340.432 -38.194 341.071 -37.664 C 342.726 -36.29 344.973 -33.985 345.969 -32.635 C 346.95 -31.309 346.926 -31.482 345.652 -34.835 C 344.269 -38.48 341.025 -44.92 338.984 -48.075 C 337.945 -49.68 336.941 -51.124 336.753 -51.284 C 336.207 -51.747 336.349 -51.955 337.212 -51.955 C 337.922 -51.955 338.104 -51.834 338.778 -50.926 C 342.407 -46.024 346.768 -36.87 348.456 -30.608 C 349.388 -27.165 349.744 -24.723 349.744 -21.814 C 349.744 -18.913 349.619 -18.165 348.431 -13.921 C 347.127 -9.272 346.998 -8.264 347.352 -5.456 C 348.144 0.856 346.753 6.88 343.281 12.179 C 342.708 13.056 340.718 15.586 338.863 17.802 C 335.108 22.283 333.478 24.682 332.519 27.128 C 331.942 28.596 331.874 29.019 331.867 31.101 C 331.865 32.381 331.859 33.424 331.859 33.419 C 331.859 33.414 330.764 32.331 329.425 31.013 Z M 329.939 29.55 C 327.56 24.166 325.775 17.454 325.178 11.65 C 325.043 10.339 324.869 8.827 324.793 8.291 L 324.654 7.315 L 323.745 9.556 C 323.246 10.789 322.653 12.534 322.427 13.439 C 321.92 15.471 321.88 18.922 322.34 20.738 C 322.767 22.409 322.572 22.558 322.084 20.938 C 321.506 19.019 321.567 14.642 322.207 12.193 C 322.696 10.323 323.904 7.396 324.439 6.784 C 324.641 6.551 324.696 6.132 324.617 5.42 L 324.501 4.391 L 322.962 7.077 C 322.115 8.557 321.208 10.363 320.949 11.091 C 320.397 12.641 320.187 12.674 320.507 11.155 C 320.873 9.395 321.508 7.888 323.07 5.062 L 324.556 2.372 L 324.569 -1.331 C 324.573 -3.371 324.662 -5.817 324.761 -6.772 C 324.859 -7.724 324.916 -8.532 324.886 -8.564 C 324.778 -8.679 321.8 -4.13 320.644 -2.085 C 318.415 1.858 317.044 6.062 316.734 9.901 L 316.576 11.866 L 316.546 10.35 C 316.451 5.492 318.559 -0.486 322.424 -6.333 C 324.558 -9.566 325.405 -11.17 325.405 -11.988 C 325.405 -12.499 325.308 -12.427 324.492 -11.29 C 323.987 -10.593 322.846 -9.066 321.955 -7.9 C 321.063 -6.735 320.083 -5.339 319.775 -4.802 C 319.468 -4.264 319.163 -3.879 319.099 -3.946 C 318.894 -4.157 320.511 -7.096 322.742 -10.566 C 326.194 -15.932 325.955 -15.349 326.787 -20.411 C 327.191 -22.873 327.52 -25.055 327.518 -25.258 C 327.515 -25.496 327.238 -25.285 326.724 -24.649 C 326.292 -24.113 324.622 -22.271 323.015 -20.555 C 320.225 -17.576 318.028 -14.983 317.31 -13.814 C 317.128 -13.515 316.779 -12.516 316.534 -11.588 C 315.636 -8.176 313.286 -3.805 311.072 -1.427 L 309.895 -0.168 L 310.168 1.136 C 310.545 2.968 311.563 5.251 313.013 7.532 C 313.695 8.604 314.315 9.556 314.392 9.648 C 314.469 9.738 314.544 8.813 314.557 7.589 C 314.601 3.869 315.867 -0.628 317.346 -2.328 C 317.928 -2.994 317.918 -2.948 316.749 0.49 C 315.782 3.334 315.246 6.601 315.248 9.617 C 315.251 12.065 316.062 16.342 316.832 17.949 C 317.34 19.016 320.375 22.594 320.771 22.594 C 320.879 22.594 320.727 22.107 320.434 21.513 C 319.338 19.302 318.917 15.788 319.558 14.252 C 319.812 13.645 319.84 13.743 319.967 15.714 C 320.289 20.73 321.59 23.206 326.015 27.232 C 327.251 28.355 328.878 29.919 329.632 30.703 C 330.384 31.486 331.018 32.13 331.04 32.13 C 331.061 32.13 330.566 30.968 329.939 29.55 Z M 331.368 30.775 C 331.203 28.013 332.669 24.128 335.148 20.751 C 335.849 19.799 336.482 18.781 336.554 18.492 C 336.668 18.037 336.456 16.144 336.094 14.359 C 336.029 14.043 336.164 14.2 336.416 14.738 C 336.653 15.243 336.916 16.217 337.001 16.901 L 337.153 18.147 L 338.804 16.091 C 340.851 13.538 342.703 10.784 343.605 8.95 C 344.284 7.567 344.289 7.527 344.181 5.158 C 344.121 3.843 343.907 2.131 343.709 1.356 C 342.701 -2.563 339.575 -7.609 334.901 -12.865 C 332.136 -15.975 330.174 -18.994 329.732 -20.812 C 329.653 -21.146 329.552 -21.384 329.513 -21.343 C 329.471 -21.301 329.238 -20.199 328.993 -18.894 C 328.749 -17.589 328.169 -14.766 327.705 -12.622 L 326.861 -8.721 L 327.206 -7.323 C 327.71 -5.262 328.724 -3.347 331.738 1.246 C 335.66 7.22 337.242 10.227 338.192 13.497 C 338.551 14.741 338.269 14.781 337.877 13.543 C 337.128 11.176 335.183 7.754 331.63 2.549 C 328.746 -1.676 328.047 -2.863 327.28 -4.82 C 326.694 -6.323 326.689 -6.33 326.684 -5.47 C 326.671 -2.842 328.117 0.524 331.47 5.69 C 333.895 9.423 334.928 11.137 334.928 11.425 C 334.928 11.725 329.2 3.896 328.356 2.439 C 327.34 0.688 326.531 -1.488 326.33 -3.01 C 326.19 -4.08 326.165 -4.12 326.017 -3.521 C 325.697 -2.218 325.405 1.942 325.405 5.209 C 325.405 10.08 325.905 11.684 329.133 17.125 C 330.843 20.01 332.388 23.203 332.388 23.845 C 332.386 24.051 332.069 23.585 331.679 22.81 C 331.29 22.035 330.271 20.28 329.418 18.909 C 327.812 16.334 326.04 12.965 326.04 12.489 C 326.04 12.34 325.962 12.168 325.867 12.107 C 325.773 12.048 325.769 12.652 325.862 13.449 C 326.324 17.433 327.615 22.722 329.073 26.612 C 329.82 28.601 331.253 31.912 331.37 31.914 C 331.406 31.914 331.406 31.4 331.368 30.775 Z M 279.067 21.708 C 281.166 10.888 282.972 5.682 286.65 -0.16 C 287.514 -1.532 282.842 3.794 281.255 5.989 C 280.692 6.768 280.193 7.364 280.148 7.315 C 280.008 7.171 281.145 5.27 282.393 3.556 C 283.839 1.573 286.243 -1.085 288.463 -3.152 C 290.348 -4.909 290.999 -5.759 289.826 -4.93 C 289.432 -4.65 288.478 -3.952 287.707 -3.374 C 286.934 -2.799 286.23 -2.328 286.138 -2.328 C 285.761 -2.328 286.947 -3.374 289.636 -5.411 C 291.206 -6.601 292.665 -7.777 292.874 -8.026 C 293.086 -8.272 295.181 -10.571 297.531 -13.136 C 303.64 -19.801 303.604 -19.758 303.604 -19.932 C 303.604 -20.021 303.009 -19.755 302.283 -19.347 C 300.749 -18.486 297.912 -17.317 293.869 -15.881 C 289.758 -14.421 285.798 -12.378 284.193 -10.892 C 282.792 -9.592 281.534 -7.959 281.274 -7.106 C 281.13 -6.625 281.215 -6.66 282.148 -7.457 C 283.694 -8.775 286.141 -10.398 288.098 -11.403 C 290.522 -12.649 290.742 -12.521 288.463 -11.187 C 284.371 -8.791 281.372 -6.288 279.429 -3.649 C 278.763 -2.746 278.216 -1.941 278.213 -1.866 C 278.211 -1.791 278.977 -2.537 279.916 -3.523 C 281.811 -5.513 283.983 -7.195 286.807 -8.86 C 288.822 -10.05 291.941 -11.526 292.098 -11.365 C 292.15 -11.312 290.785 -10.358 289.062 -9.242 C 281.672 -4.459 277.896 -0.663 275.656 4.238 C 274.653 6.433 274.136 11.094 274.583 13.925 L 274.738 14.901 L 275.105 13.599 C 276.31 9.35 278.505 5.112 281.152 1.92 C 282.667 0.092 284.483 -1.609 284.693 -1.396 C 284.754 -1.331 284.295 -0.711 283.674 -0.015 C 280.019 4.064 277.025 9.206 275.635 13.792 C 275.127 15.455 275.012 16.152 275.114 16.925 C 275.307 18.356 275.586 18.462 275.754 17.169 C 276.073 14.703 277.664 10.593 278.655 9.677 C 279.314 9.065 279.157 9.711 277.989 12.382 C 276.928 14.81 276.149 17.585 276.063 19.235 C 276.033 19.801 276.376 21.168 277.049 23.181 C 277.616 24.876 278.108 26.235 278.143 26.197 C 278.179 26.163 278.592 24.144 279.067 21.708 Z M 280.652 22.7 C 282.553 19.801 283.926 16.879 284.678 14.131 L 285.296 11.866 L 285.362 13.125 C 285.436 14.626 285.01 16.264 284.011 18.297 C 283.611 19.104 283.287 19.808 283.287 19.855 C 283.287 19.903 284.216 19.312 285.351 18.54 C 287.567 17.032 288.486 16.037 289.434 14.121 C 290.832 11.291 291.364 8.909 292.073 2.284 C 292.358 -0.366 292.65 -2.804 292.724 -3.136 L 292.859 -3.737 L 292.195 -2.978 C 291.136 -1.77 291.157 -1.874 290.485 5.415 C 290.215 8.327 289.506 11.323 288.6 13.366 C 287.724 15.345 287.559 15.097 288.395 13.059 C 289.294 10.869 289.801 8.15 290.056 4.174 C 290.173 2.326 290.323 0.425 290.387 -0.051 L 290.505 -0.914 L 289.701 0.04 C 287.676 2.447 286.483 4.115 286.358 4.714 C 286.283 5.073 286.043 6.473 285.823 7.827 C 285.451 10.155 285.311 10.653 285.102 10.438 C 285.052 10.388 285.092 9.371 285.192 8.182 C 285.292 6.993 285.347 5.994 285.317 5.963 C 285.139 5.781 282.718 11.49 281.934 13.944 C 281.145 16.409 279.055 24.347 279.055 24.879 C 279.055 25.13 279.109 25.056 280.652 22.7 Z M 282.864 16.633 C 282.864 16.115 283.816 12.562 283.873 12.863 C 283.969 13.358 283.334 16.348 283.08 16.609 C 282.959 16.73 282.864 16.74 282.864 16.633 Z M 291.913 14.321 C 293.166 13.369 293.996 11.904 295.105 8.685 C 295.958 6.203 296.377 3.854 296.619 0.19 C 296.727 -1.465 296.867 -2.871 296.93 -2.935 C 297.258 -3.272 297.359 -2.414 297.336 0.562 C 297.317 3.297 297.226 4.182 296.799 5.842 L 296.285 7.835 L 297.351 6.81 C 297.94 6.243 298.772 5.511 299.204 5.177 C 300.522 4.155 301.606 1.897 302.235 -1.16 C 302.478 -2.336 302.643 -4.697 302.759 -8.721 C 302.854 -11.941 302.997 -14.818 303.074 -15.114 L 303.219 -15.656 L 302.791 -15.119 C 302.18 -14.347 302.143 -14.047 301.913 -8.226 C 301.703 -2.874 301.306 0.043 300.545 1.866 C 300.145 2.821 299.873 2.826 300.23 1.874 C 300.857 0.209 301.119 -2.233 301.261 -7.745 C 301.343 -10.905 301.396 -13.515 301.376 -13.547 C 301.299 -13.673 297.87 -9.861 295.901 -7.457 C 293.591 -4.635 293.399 -4.176 293.139 -0.858 C 292.682 4.971 292.21 8.297 291.511 10.618 C 291.079 12.05 289.79 14.802 289.055 15.872 L 288.685 16.409 L 289.741 15.788 C 290.325 15.446 291.301 14.786 291.913 14.321 Z M 345.882 2.166 C 347.102 -3.17 346.236 -9.756 343.607 -15.109 C 343.131 -16.085 341.854 -18.216 340.779 -19.846 C 338.399 -23.44 338.321 -23.576 338.938 -23.025 C 339.78 -22.271 341.897 -19.488 343.332 -17.245 C 344.823 -14.913 346.276 -11.818 346.49 -10.51 C 346.564 -10.063 346.681 -9.697 346.755 -9.7 C 346.828 -9.7 347.263 -11.625 347.72 -13.978 C 348.723 -19.13 348.888 -21.86 348.383 -25.109 C 347.659 -29.79 345.927 -32.156 338.631 -38.412 C 334.424 -42.022 332.371 -44.161 331.133 -46.233 C 330.641 -47.057 330.289 -47.536 330.349 -47.295 C 330.411 -47.057 330.519 -45.302 330.593 -43.397 C 330.792 -38.284 331.068 -37.485 334.461 -32.287 C 335.572 -30.59 336.436 -29.156 336.387 -29.103 C 336.251 -28.966 332.879 -33.327 331.8 -35.028 C 331.11 -36.117 330.926 -36.303 331.036 -35.811 C 331.597 -33.269 333.7 -29.424 336.236 -26.3 C 336.806 -25.601 337.223 -24.974 337.16 -24.913 C 337.011 -24.758 334.664 -27.386 333.275 -29.263 C 332.657 -30.098 331.802 -31.474 331.376 -32.322 L 330.601 -33.86 L 330.439 -31.367 C 330.1 -26.146 330.109 -25.983 330.845 -24.432 C 331.685 -22.667 332.771 -21.175 335.026 -18.689 C 338.134 -15.264 340.444 -12.029 341.909 -9.058 C 342.815 -7.211 344.488 -2.767 344.388 -2.459 C 344.346 -2.328 344.092 -2.903 343.821 -3.737 C 342.453 -7.994 339.532 -12.425 334.606 -17.719 C 331.887 -20.641 330.981 -21.825 330.246 -23.406 L 329.82 -24.325 L 329.939 -23.242 C 330.115 -21.702 331.48 -18.98 333.093 -16.956 C 333.853 -16.001 335.252 -14.248 336.202 -13.055 C 340.656 -7.467 343.677 -1.414 344.68 3.925 C 345 5.634 345.131 5.444 345.882 2.166 Z M 344.327 -17.769 C 343.696 -19.21 341.695 -22.205 340.091 -24.108 C 337.629 -27.033 336.833 -28.058 336.833 -28.309 C 336.833 -28.825 337.257 -28.482 338.886 -26.653 C 341.869 -23.304 343.922 -20.178 344.786 -17.673 C 345.17 -16.553 344.826 -16.624 344.327 -17.769 Z M 303.183 2.054 C 304.135 0.508 305.041 -2.066 305.429 -4.32 C 305.71 -5.964 305.75 -7.2 305.643 -11.023 C 305.524 -15.29 305.621 -16.994 306.053 -18.256 C 306.145 -18.526 305.823 -18.311 305.198 -17.689 C 303.93 -16.422 303.86 -16.069 303.608 -9.587 C 303.352 -2.984 302.821 -0.031 301.361 2.917 L 300.839 3.974 L 301.695 3.524 C 302.23 3.247 302.791 2.693 303.183 2.054 Z M 304.687 1.821 C 307.761 -0.176 309.95 -5.972 309.952 -12.135 C 309.955 -13.968 310.185 -14.552 310.502 -13.542 C 310.587 -13.275 310.649 -12.032 310.636 -10.78 C 310.609 -7.321 309.561 -3.675 307.717 -0.62 L 307.144 0.332 L 307.831 -0.077 C 310.045 -1.398 312.431 -4.409 313.97 -7.815 C 315.483 -11.167 315.708 -12.101 315.815 -15.441 C 315.9 -18.071 315.837 -18.863 315.365 -21.4 C 315.066 -23.007 314.611 -25.573 314.357 -27.103 L 313.892 -29.881 L 313.416 -28.945 C 312.799 -27.739 312.789 -26.435 313.361 -22.557 C 314.137 -17.293 313.718 -11.397 312.297 -7.662 C 311.84 -6.459 311.898 -7.221 312.397 -8.986 C 313.485 -12.836 313.588 -17.24 312.704 -22.167 C 312.472 -23.459 312.283 -24.937 312.283 -25.45 C 312.283 -25.964 312.209 -26.376 312.122 -26.368 C 311.773 -26.336 310.107 -23.43 310.01 -22.681 C 309.952 -22.24 310.02 -20.542 310.158 -18.905 C 310.327 -16.919 310.342 -15.857 310.2 -15.713 C 310.058 -15.569 309.942 -15.847 309.85 -16.55 C 309.773 -17.133 309.623 -18.135 309.516 -18.785 C 309.408 -19.432 309.316 -20.505 309.313 -21.167 L 309.309 -22.373 L 308.168 -21.074 C 307.503 -20.32 306.921 -19.408 306.779 -18.905 C 306.639 -18.416 306.46 -15.318 306.362 -11.756 C 306.15 -3.916 305.801 -1.962 304.013 1.303 C 303.67 1.928 303.466 2.439 303.561 2.439 C 303.655 2.439 304.163 2.161 304.687 1.821 Z M 285.486 -12.815 C 287.209 -13.983 290.473 -15.528 294.504 -17.082 C 300.954 -19.563 303.381 -20.796 305.795 -22.809 C 307.788 -24.472 307.643 -24.699 305.338 -23.531 C 303.386 -22.539 301.864 -22.044 295.196 -20.229 C 291.951 -19.344 289.775 -18.462 288.175 -17.384 C 286.76 -16.43 286.488 -16.547 287.866 -17.518 C 289.506 -18.675 292.688 -19.988 297.262 -21.395 C 299.623 -22.122 302.325 -23.028 303.263 -23.408 C 306.047 -24.536 309.553 -27.127 310.304 -28.617 C 310.585 -29.17 310.505 -29.135 309.451 -28.256 C 307.89 -26.953 306 -25.908 303.75 -25.103 C 301.629 -24.343 298.113 -23.561 296.904 -23.579 C 296.117 -23.59 296.132 -23.603 297.361 -23.988 C 298.06 -24.207 299.87 -24.74 301.384 -25.172 C 305.044 -26.221 307.633 -27.544 309.474 -29.314 L 310.907 -30.691 L 308.896 -29.669 C 306.987 -28.699 304.51 -27.87 302.652 -27.579 C 302.185 -27.506 302.751 -27.777 303.923 -28.183 C 308.427 -29.755 310.691 -31.199 312.242 -33.493 C 313.096 -34.755 312.996 -34.88 311.688 -34.207 C 310.13 -33.399 309.379 -33.199 305.918 -32.667 C 300.776 -31.879 298.467 -30.801 294.085 -27.16 C 292.028 -25.448 288.649 -22.127 288.802 -21.967 C 288.869 -21.897 289.601 -22.133 290.43 -22.488 C 291.961 -23.148 294.17 -23.608 293.763 -23.186 C 293.646 -23.063 292.647 -22.603 291.541 -22.159 C 287.963 -20.726 287.102 -20.092 285.658 -17.844 C 284.962 -16.759 284.203 -15.483 283.973 -15.007 C 283.514 -14.063 282.588 -11.475 282.356 -10.489 C 282.22 -9.914 282.275 -9.94 283.247 -10.935 C 283.816 -11.518 284.824 -12.363 285.486 -12.815 Z M 319.645 -17.678 C 320.172 -18.314 321.235 -19.534 322.012 -20.39 C 327.78 -26.737 327.725 -26.659 327.943 -28.712 C 328.027 -29.517 328.082 -30.197 328.064 -30.221 C 328.047 -30.245 327.538 -29.499 326.933 -28.563 C 326.327 -27.627 324.427 -25.311 322.708 -23.419 C 320.991 -21.526 319.328 -19.665 319.016 -19.279 C 318.396 -18.52 318.075 -18.357 318.392 -18.962 C 318.716 -19.585 320.634 -21.975 322.352 -23.903 C 326.04 -28.042 328.154 -31.349 328.154 -32.983 L 328.154 -33.787 L 327.468 -32.474 C 326.351 -30.344 324.167 -27.739 320.371 -24.021 L 316.811 -20.529 L 316.961 -19.285 C 317.046 -18.601 317.124 -17.228 317.131 -16.234 L 317.149 -14.429 L 317.92 -15.478 C 318.345 -16.053 319.12 -17.045 319.645 -17.678 Z M 286.922 -22.831 C 287.766 -22.951 288.113 -23.207 290.18 -25.242 C 294.188 -29.186 298.02 -31.795 301.701 -33.09 C 302.3 -33.3 302.694 -33.747 303.773 -35.448 C 304.508 -36.6 305.486 -37.972 305.95 -38.493 C 306.415 -39.014 306.762 -39.477 306.717 -39.523 C 306.674 -39.565 306.167 -39.458 305.588 -39.282 C 304.525 -38.958 304.15 -38.675 300.765 -35.633 C 298.735 -33.811 297.076 -32.563 296.912 -32.732 C 296.857 -32.787 297.076 -33.049 297.404 -33.311 C 298.388 -34.103 302.762 -38.372 302.677 -38.458 C 302.632 -38.503 301.966 -38.391 301.197 -38.207 C 299.553 -37.82 298.016 -37.054 294.942 -35.103 C 293.711 -34.322 292.228 -33.394 291.646 -33.041 C 287.709 -30.648 279.055 -26.3 279.055 -26.715 C 279.055 -26.774 279.839 -27.194 280.8 -27.649 C 281.761 -28.105 283.869 -29.237 285.486 -30.164 C 288.171 -31.704 289.396 -32.471 293.446 -35.162 C 294.203 -35.664 295.346 -36.351 295.986 -36.691 C 296.737 -37.087 297.025 -37.333 296.792 -37.383 C 296.257 -37.501 291.212 -35.241 287.731 -33.324 C 282.216 -30.287 279.007 -28.766 277.466 -28.456 C 277.117 -28.387 277.324 -28.515 277.926 -28.745 C 279.327 -29.279 282.041 -30.681 283.833 -31.795 C 284.606 -32.277 285.275 -32.667 285.319 -32.667 C 285.366 -32.667 286.143 -33.161 287.044 -33.763 C 287.946 -34.365 289.564 -35.309 290.64 -35.862 C 291.714 -36.413 292.567 -36.889 292.537 -36.921 C 292.508 -36.952 290.296 -36.876 287.621 -36.753 C 284.947 -36.627 281.447 -36.581 279.846 -36.651 C 276.34 -36.803 275.804 -36.646 272.513 -34.504 C 270.326 -33.076 267.195 -31.367 266.77 -31.367 C 266.321 -31.367 266.827 -31.819 267.904 -32.379 C 269.073 -32.983 273.893 -36.036 274.356 -36.461 C 274.57 -36.659 273.904 -36.75 271.412 -36.86 C 261.817 -37.284 255.028 -36.704 249.895 -35.022 C 247.607 -34.271 245.496 -33.368 245.653 -33.207 C 245.708 -33.151 246.319 -33.218 247.008 -33.354 C 248.856 -33.729 254.247 -33.664 256.514 -33.242 C 257.562 -33.046 258.953 -32.886 259.607 -32.886 C 260.993 -32.884 263.879 -33.365 266.143 -33.969 C 268.738 -34.665 268.861 -34.656 267.307 -33.883 C 265.322 -32.897 264.014 -32.466 262.528 -32.306 C 261.24 -32.17 261.057 -31.945 262.066 -31.736 C 263.025 -31.539 265.135 -30.55 270.059 -27.985 C 272.621 -26.651 275.669 -25.154 276.833 -24.657 C 278.838 -23.801 279.028 -23.76 280.43 -23.892 C 283.611 -24.186 285.954 -25.264 291.511 -28.999 C 293.651 -30.432 295.441 -31.565 295.494 -31.511 C 295.613 -31.386 291.86 -28.351 289.953 -27.033 C 287.077 -25.047 283.592 -23.566 281.784 -23.566 C 281.329 -23.566 280.96 -23.475 280.96 -23.362 C 280.96 -22.862 284.748 -22.525 286.922 -22.831 Z M 274.358 -27.833 C 274.511 -27.895 274.693 -27.887 274.765 -27.814 C 274.835 -27.742 274.71 -27.691 274.486 -27.702 C 274.24 -27.712 274.189 -27.764 274.358 -27.833 Z M 275.417 -28.05 C 275.569 -28.111 275.751 -28.103 275.821 -28.031 C 275.891 -27.958 275.769 -27.908 275.544 -27.919 C 275.297 -27.929 275.247 -27.98 275.417 -28.05 Z M 276.263 -28.266 C 276.416 -28.327 276.598 -28.319 276.668 -28.248 C 276.74 -28.175 276.615 -28.124 276.391 -28.135 C 276.143 -28.146 276.094 -28.196 276.263 -28.266 Z M 307.928 -36.368 C 308.849 -37.774 309.946 -39.309 310.363 -39.779 C 310.776 -40.247 311.305 -40.846 311.536 -41.108 L 311.953 -41.584 L 310.829 -41.132 C 309.029 -40.405 308.652 -40.146 307.281 -38.699 C 306.035 -37.381 303.181 -33.784 303.181 -33.533 C 303.181 -33.467 303.873 -33.499 304.717 -33.608 L 306.25 -33.808 L 307.928 -36.368 Z M 246.212 -33.975 C 250.736 -36.212 259.188 -38.012 265.614 -38.108 C 266.431 -38.121 267.335 -38.204 267.625 -38.296 L 268.154 -38.458 L 267.625 -38.686 C 267.335 -38.809 266.334 -39.247 265.402 -39.659 C 259.799 -42.132 254.666 -41.642 249.952 -38.186 C 248.818 -37.354 244.923 -33.536 245.208 -33.536 C 245.273 -33.536 245.722 -33.734 246.212 -33.975 Z M 311.276 -35.758 C 312.063 -36.651 316.315 -42.768 317.253 -44.359 C 317.446 -44.685 316.005 -43.891 314.504 -42.846 C 313.221 -41.95 310.442 -38.867 308.849 -36.565 C 308.065 -35.434 307.423 -34.399 307.418 -34.266 C 307.416 -34.09 307.815 -34.105 308.844 -34.322 C 310.149 -34.595 310.357 -34.718 311.276 -35.758 Z M 312.427 -35.691 C 313.117 -36.122 313.633 -36.86 313.511 -37.237 C 313.473 -37.354 312.971 -36.958 312.395 -36.36 C 311.29 -35.212 311.303 -34.988 312.427 -35.691 Z M 292.599 -37.538 C 302.29 -38.522 309.44 -40.68 315.987 -44.597 C 318.362 -46.019 318.739 -46.356 318.959 -47.253 C 319.101 -47.845 319.069 -47.832 317.71 -46.779 C 311.678 -42.102 302.05 -38.841 291.429 -37.87 C 289.9 -37.731 283.609 -37.651 275.662 -37.669 C 268.161 -37.685 262.074 -37.613 261.594 -37.498 C 261 -37.36 262.708 -37.284 267.299 -37.25 C 270.902 -37.223 273.904 -37.143 273.967 -37.073 C 274.185 -36.829 289.339 -37.207 292.599 -37.538 Z M 314.59 -38.466 C 314.839 -38.971 315.003 -39.386 314.956 -39.386 C 314.717 -39.386 313.76 -37.833 313.881 -37.637 C 314.05 -37.354 314.033 -37.336 314.59 -38.466 Z M 317.79 -39.889 C 317.788 -39.988 318.08 -40.504 318.437 -41.038 C 318.796 -41.573 319.69 -43.298 320.424 -44.87 C 321.758 -47.725 322.569 -48.985 324.327 -50.926 C 325.121 -51.805 325.828 -52.236 325.828 -51.845 C 325.828 -51.784 325.121 -50.894 324.257 -49.864 C 323.39 -48.838 322.272 -47.228 321.77 -46.287 C 319.518 -42.081 318.999 -41.182 318.417 -40.468 C 318.075 -40.052 317.795 -39.792 317.79 -39.889 Z M 256.566 -43.648 C 256.713 -43.706 256.95 -43.706 257.096 -43.648 C 257.242 -43.586 257.123 -43.538 256.831 -43.538 C 256.541 -43.538 256.421 -43.586 256.566 -43.648 Z M 334.888 -49.54 C 334.037 -50.238 333.11 -51.067 332.828 -51.383 C 332.339 -51.928 332.334 -51.955 332.741 -51.955 C 332.978 -51.955 333.732 -51.45 334.418 -50.829 C 335.106 -50.209 335.842 -49.552 336.054 -49.367 C 336.564 -48.923 336.914 -48.271 336.643 -48.271 C 336.529 -48.271 335.739 -48.843 334.888 -49.54 Z M 313.553 -49.955 C 312.911 -50.385 311.72 -51.012 310.907 -51.34 L 309.425 -51.941 L 310.56 -51.949 C 311.455 -51.955 311.99 -51.795 313.119 -51.188 C 314.611 -50.385 315.835 -49.124 315.094 -49.155 C 314.886 -49.163 314.192 -49.524 313.553 -49.955 Z M 273.078 -51.891 C 273.342 -51.944 273.721 -51.941 273.924 -51.886 C 274.126 -51.832 273.912 -51.789 273.446 -51.792 C 272.98 -51.795 272.815 -51.84 273.078 -51.891 Z" id="path1"><title>layout</title></path><path style="fill: rgb(210, 164, 129); fill-opacity: 0.151515; stroke-width: 0.52869; transform-origin: 9.031px 128.887px;" d="M 47.401 190.183 C 43.881 189.442 37.651 186.819 33.941 184.509 C 26.791 180.06 20.081 172.919 15.621 165.007 C 8.501 152.366 7.131 141.325 11.621 132.716 C 14.831 126.559 21.701 120.996 29.961 117.859 C 33.271 116.602 34.281 116.677 34.281 118.177 C 34.281 119.113 33.951 119.468 31.841 120.848 C 28.751 122.859 26.151 125.575 25.031 127.96 C 23.801 130.602 23.631 134.984 24.661 137.911 C 26.741 143.839 32.151 147.163 46.161 151.093 C 57.991 154.419 60.541 155.542 63.981 158.959 C 67.981 162.945 69.811 168.293 69.081 173.911 C 67.661 184.88 57.711 192.348 47.401 190.183 Z M 54.511 187.036 C 58.891 186.044 62.991 182.523 65.081 177.966 C 65.981 176.004 66.061 175.459 66.061 171.702 C 66.061 167.889 65.991 167.429 65.031 165.41 C 63.781 162.751 60.711 159.612 58.051 158.266 C 56.231 157.344 54.041 156.633 41.281 152.812 C 31.951 150.015 26.791 147.021 23.781 142.641 C 20.651 138.091 20.051 131.633 22.301 126.88 C 22.681 126.089 22.901 125.356 22.801 125.255 C 22.461 124.883 19.541 127.366 17.211 130.019 C 12.971 134.821 11.211 140.564 12.051 146.783 C 13.241 155.662 18.511 166.058 25.711 173.772 C 31.071 179.512 36.741 183.311 43.641 185.785 C 48.841 187.65 50.811 187.878 54.511 187.036 Z M 56.111 178.272 C 43.701 175.455 33.481 170.544 26.341 163.948 C 20.521 158.574 16.471 150.376 16.211 143.457 C 16.141 141.594 16.241 141.056 16.741 140.713 C 17.731 140.024 18.531 140.872 18.851 142.944 C 19.811 149.254 21.591 153.625 24.901 157.844 C 26.811 160.261 30.531 163.874 30.811 163.574 C 30.881 163.499 30.711 162.622 30.431 161.622 C 30.141 160.622 29.921 158.652 29.921 157.245 C 29.921 155.176 30.051 154.542 30.621 153.93 C 31.181 153.329 31.471 153.253 32.021 153.569 C 32.601 153.903 32.711 154.357 32.711 156.502 C 32.711 159.448 33.401 162.245 34.861 165.2 C 35.851 167.21 36.041 167.368 39.281 169.015 C 42.541 170.673 47.381 172.742 47.381 172.477 C 47.381 172.405 46.691 170.94 45.841 169.221 C 43.291 164.063 42.491 159.976 43.861 159.189 C 44.801 158.652 45.601 159.077 45.851 160.245 C 46.971 165.553 48.211 168.266 51.451 172.472 C 52.901 174.354 52.931 174.371 56.481 175.191 C 58.451 175.643 60.281 176.202 60.531 176.43 C 61.461 177.255 60.821 179.028 59.621 178.97 C 59.321 178.955 57.741 178.64 56.111 178.272 Z M 94.181 189.991 C 90.611 188.963 88.631 187.723 86.021 184.888 C 78.791 177.055 78.721 166.069 85.841 159.005 C 89.411 155.467 92.181 154.256 104.661 150.775 C 114.521 148.024 119.271 145.732 122.601 142.125 C 125.651 138.816 126.771 133.393 125.271 129.147 C 124.261 126.273 121.531 123.16 118.151 121.033 C 115.311 119.236 114.941 118.76 115.501 117.632 C 116.001 116.628 117.121 116.725 120.201 118.033 C 126.091 120.538 130.421 123.412 134.041 127.212 C 138.031 131.404 140.071 135.876 140.691 141.772 C 140.881 143.631 141.071 145.176 141.101 145.211 C 141.131 145.243 141.862 145.125 142.726 144.946 C 147.51 143.957 151.735 144.864 154.087 147.382 C 157.664 151.213 157.56 157.703 153.788 166.05 C 150.339 173.683 146.082 178.188 140.081 180.558 C 138.341 181.244 137.271 181.372 133.301 181.378 C 129.121 181.383 128.271 181.272 125.791 180.389 L 123.011 179.394 L 120.551 181.252 C 111.071 188.445 100.721 191.87 94.181 189.991 Z M 104.271 186.463 C 109.371 184.948 114.951 181.918 119.751 178.052 C 121.151 176.927 122.431 176.004 122.591 176.004 C 122.761 176.004 124.331 176.522 126.081 177.154 C 133.921 179.972 140.721 178.581 145.975 173.084 C 151.098 167.719 154.711 158.012 153.587 152.636 C 153.125 150.43 151.607 148.596 149.792 148.053 C 148.149 147.561 143.702 147.78 141.231 148.479 C 137.961 149.4 137.841 149.256 137.841 144.396 C 137.841 136.987 135.201 131.502 129.371 126.813 C 127.221 125.086 126.511 125.046 127.461 126.706 C 128.421 128.358 128.841 131.043 128.691 134.436 C 128.571 137.23 128.371 138.152 127.431 140.187 C 126.031 143.237 123.511 145.989 120.291 148.005 C 117.401 149.813 111.011 152.328 105.701 153.751 C 98.071 155.799 93.241 157.395 91.241 158.537 C 82.491 163.534 80.871 174.641 87.761 182.384 C 92.051 187.196 97.371 188.511 104.271 186.463 Z M 89.351 178.675 C 89.091 178.496 88.941 177.889 89.001 177.296 C 89.131 176.14 88.931 176.226 93.921 175.079 C 96.951 174.381 97.661 173.79 100.171 169.9 C 101.901 167.212 103.031 164.526 103.631 161.679 C 104.091 159.456 104.811 158.601 105.861 159.029 C 107.341 159.641 106.551 163.882 103.971 169.161 L 102.281 172.603 L 104.951 171.555 C 106.421 170.981 109.041 169.768 110.771 168.862 C 113.771 167.29 113.961 167.114 115.041 164.972 C 116.391 162.258 117.401 157.812 117.071 155.956 C 116.801 154.389 117.291 153.564 118.501 153.564 C 120.061 153.564 120.461 156.593 119.491 161.004 C 119.201 162.32 119.041 163.483 119.141 163.59 C 119.491 163.967 126.511 155.956 127.651 153.876 C 129.151 151.134 130.421 147.179 130.711 144.377 C 131.061 140.941 132.131 139.653 133.451 141.069 C 133.891 141.534 133.961 142.091 133.781 143.593 C 133.371 147.024 132.331 150.797 131.001 153.614 C 125.931 164.408 114.031 172.831 97.551 177.282 C 92.131 178.748 89.981 179.114 89.351 178.675 Z M 131.451 172.44 C 129.721 171.761 128.061 170.48 128.061 169.83 C 128.061 169.55 129.081 167.702 130.331 165.729 C 131.581 163.753 133.311 160.635 134.171 158.801 C 135.721 155.485 135.741 155.462 137.571 154.871 C 138.581 154.542 140.441 154.176 141.693 154.058 C 143.58 153.879 144.224 153.978 145.397 154.619 C 148.115 156.104 148.24 158.48 145.865 163.518 C 142.311 171.057 136.731 174.512 131.451 172.44 Z M 137.791 168.924 C 140.241 167.587 143.687 162.553 144.637 158.932 C 145.02 157.465 143.937 156.804 141.575 157.069 C 138.471 157.416 137.921 157.857 136.201 161.363 C 135.361 163.079 134.051 165.47 133.281 166.67 C 132.521 167.873 131.901 168.956 131.901 169.077 C 131.901 169.197 132.251 169.459 132.681 169.654 C 133.771 170.149 136.181 169.807 137.791 168.924 Z M 65.621 146.839 C 47.571 145.633 34.011 141.479 31.001 136.227 C 29.801 134.139 29.721 132.478 30.731 130.628 C 31.231 129.73 32.151 128.572 32.781 128.056 C 39.831 122.294 58.661 118.709 78.811 119.286 C 94.391 119.733 106.011 121.966 113.561 125.955 C 116.691 127.612 117.261 128.078 118.681 130.152 C 120.921 133.433 119.421 137.032 114.611 139.92 C 110.101 142.628 100.191 145.251 90.571 146.285 C 84.071 146.983 71.851 147.253 65.621 146.839 Z M 83.271 143.85 C 90.841 143.329 96.131 142.577 102.041 141.179 C 110.981 139.064 116.881 135.944 116.881 133.331 C 116.881 132.38 114.931 130.097 113.421 129.276 C 105.071 124.747 91.661 122.391 74.451 122.43 C 61.081 122.463 49.901 123.989 41.821 126.882 C 37.471 128.441 35.951 129.231 34.291 130.791 C 26.681 137.949 55.871 145.735 83.271 143.85 Z M 64.671 142.331 C 52.491 141.435 41.721 138.829 36.541 135.522 C 32.961 133.236 33.951 131.666 40.741 128.845 C 54.041 123.321 81.491 122.155 100.641 126.299 C 107.561 127.797 114.091 130.652 115.271 132.695 C 116.521 134.877 107.911 138.89 98.191 140.655 C 89.041 142.321 74.421 143.051 64.671 142.331 Z M 70.751 112.105 L 69.931 111.391 L 71.051 109.008 C 73.131 104.597 72.941 102.17 70.091 96.849 C 67.341 91.718 67.101 87.596 69.241 82.48 C 70.301 79.967 71.091 79.264 72.181 79.884 C 73.111 80.419 73.061 81.093 71.911 83.587 C 71.161 85.229 70.931 86.328 70.841 88.676 C 70.741 91.408 70.821 91.844 71.781 93.723 C 75.091 100.231 75.141 100.404 75.141 104.009 C 75.131 106.993 75.011 107.624 74.091 109.578 C 73.521 110.789 72.721 112.014 72.311 112.301 C 71.671 112.754 71.481 112.73 70.751 112.105 Z M 77.301 99.833 C 76.811 99.314 77.101 97.87 78.021 96.108 C 78.841 94.565 78.991 93.849 78.991 91.467 C 78.991 89.061 78.841 88.349 77.961 86.603 C 74.731 80.165 74.791 80.389 74.791 76.334 C 74.791 72.78 74.861 72.427 76.021 69.965 C 77.021 67.815 77.411 67.336 78.181 67.24 C 79.801 67.04 79.961 68.133 78.691 70.914 C 77.731 73.021 77.591 73.735 77.591 76.334 C 77.591 78.844 77.741 79.628 78.511 81.195 C 81.991 88.269 81.781 87.604 81.771 91.467 C 81.751 95.266 81.071 97.665 79.531 99.311 C 78.821 100.071 77.751 100.32 77.301 99.833 Z" id="path3-6"><title>logo</title></path></g></svg>