<?xml version="1.0" encoding="UTF-8" standalone="no"?>
<svg xmlns="http://www.w3.org/2000/svg" width="128" height="128" viewBox="0 0 128 128">
  <!-- Background Circle -->
  <circle cx="64" cy="64" r="60" fill="#F8F5F2" stroke="#6F4E37" stroke-width="2"/>
  
  <!-- Tree Trunk -->
  <path d="M64 100 L64 60" stroke="#6F4E37" stroke-width="8" stroke-linecap="round"/>
  
  <!-- Branch 1 -->
  <path d="M64 60 L40 45" stroke="#6F4E37" stroke-width="6" stroke-linecap="round"/>
  <circle cx="35" cy="42" r="8" fill="#4CAF50"/>
  <path d="M30 42 Q40 36, 42 44" fill="none" stroke="#2E7D32" stroke-width="1.5"/>
  
  <!-- Branch 2 -->
  <path d="M64 60 L88 45" stroke="#6F4E37" stroke-width="6" stroke-linecap="round"/>
  <circle cx="93" cy="42" r="8" fill="#4CAF50"/>
  <path d="M88 42 Q98 36, 100 44" fill="none" stroke="#2E7D32" stroke-width="1.5"/>
  
  <!-- Branch 3 -->
  <path d="M64 75 L45 70" stroke="#6F4E37" stroke-width="5" stroke-linecap="round"/>
  <circle cx="38" cy="70" r="7" fill="#4CAF50"/>
  <path d="M34 70 Q42 65, 44 72" fill="none" stroke="#2E7D32" stroke-width="1.5"/>
  
  <!-- Branch 4 -->
  <path d="M64 75 L83 70" stroke="#6F4E37" stroke-width="5" stroke-linecap="round"/>
  <circle cx="90" cy="70" r="7" fill="#4CAF50"/>
  <path d="M86 70 Q94 65, 96 72" fill="none" stroke="#2E7D32" stroke-width="1.5"/>
  
  <!-- Coffee Bean at Base -->
  <ellipse cx="58" cy="105" rx="9" ry="6" transform="rotate(-15 58 105)" fill="#3A2618"/>
  <ellipse cx="70" cy="105" rx="9" ry="6" transform="rotate(15 70 105)" fill="#3A2618"/>
  
  <!-- Root -->
  <path d="M60 100 Q45 110, 35 105" fill="none" stroke="#6F4E37" stroke-width="3" stroke-linecap="round"/>
  <path d="M68 100 Q83 110, 93 105" fill="none" stroke="#6F4E37" stroke-width="3" stroke-linecap="round"/>
</svg> 