<?xml version="1.0" encoding="UTF-8" standalone="no"?>
<svg xmlns="http://www.w3.org/2000/svg" width="512" height="512" viewBox="0 0 512 512">
  <!-- Background Circle -->
  <circle cx="256" cy="256" r="250" fill="#F8F5F2" stroke="#6F4E37" stroke-width="12"/>
  
  <!-- Coffee Cup -->
  <path d="M160 180 L160 350 Q160 380, 256 380 Q352 380, 352 350 L352 180 Z" fill="#6F4E37" />
  <path d="M160 180 L352 180 L352 200 L160 200 Z" fill="#3A2618" />
  
  <!-- Cup Handle -->
  <path d="M352 230 Q400 230, 400 280 Q400 330, 352 330" fill="none" stroke="#6F4E37" stroke-width="20" stroke-linecap="round" />
  
  <!-- Steam -->
  <path d="M200 140 Q210 110, 230 130 Q250 150, 260 110 Q270 70, 300 100 Q330 130, 310 160" fill="none" stroke="#4CAF50" stroke-width="8" stroke-linecap="round" />
  
  <!-- Leaf on top -->
  <path d="M250 120 Q280 90, 310 110 Q340 130, 320 150 Q300 170, 270 160 Q240 150, 250 120" fill="#4CAF50" />
  <path d="M270 120 Q290 130, 300 150" fill="none" stroke="#F8F5F2" stroke-width="3" />
  
  <!-- Eco Footprint Symbol at bottom -->
  <g transform="translate(256, 450) scale(0.6)">
    <path d="M-50,-30 Q-20,-60, 20,-60 Q60,-60, 70,-30 Q80,0, 60,20 Q40,40, 0,40 Q-40,40, -60,20 Q-80,0, -50,-30" fill="#4CAF50" />
    <path d="M-20,-10 L20,-10 L0,30 Z" fill="#F8F5F2" />
  </g>
  
  <!-- CO2 Text -->
  <text x="256" y="280" text-anchor="middle" font-family="Arial" font-size="40" font-weight="bold" fill="#F8F5F2">CO₂</text>
</svg> 