<?xml version="1.0" encoding="UTF-8" standalone="no"?>
<svg xmlns="http://www.w3.org/2000/svg" width="128" height="128" viewBox="0 0 128 128">
  <!-- Package Box -->
  <rect x="34" y="40" width="60" height="70" fill="#B1907F" stroke="#6F4E37" stroke-width="2" />
  
  <!-- Packaging Top -->
  <path d="M34 40 L44 25 L94 25 L94 40 Z" fill="#D2B48C" stroke="#6F4E37" stroke-width="2" />
  <path d="M94 40 L94 25 L104 40 Z" fill="#D2B48C" stroke="#6F4E37" stroke-width="2" />
  
  <!-- Coffee Bean Logo -->
  <ellipse cx="54" cy="65" rx="8" ry="6" transform="rotate(-30 54 65)" fill="#3A2618" />
  <ellipse cx="74" cy="65" rx="8" ry="6" transform="rotate(30 74 65)" fill="#3A2618" />
  
  <!-- Recycling Symbol -->
  <g transform="translate(64, 95) scale(0.5)">
    <path d="M0,-18 L6,-5 L-6,-5 Z" fill="#4CAF50" />
    <path d="M-16,9 L-4,4 L-10,-7 Z" fill="#4CAF50" />
    <path d="M16,9 L4,4 L10,-7 Z" fill="#4CAF50" />
    <path d="M0,-15 L0,-8" stroke="#4CAF50" stroke-width="2" stroke-linecap="round" />
    <path d="M-13,7.5 L-6.5,4" stroke="#4CAF50" stroke-width="2" stroke-linecap="round" />
    <path d="M13,7.5 L6.5,4" stroke="#4CAF50" stroke-width="2" stroke-linecap="round" />
    <circle cx="0" cy="0" r="16" stroke="#4CAF50" stroke-width="2" fill="none" />
  </g>
</svg> 